<svg width="64" height="64" xmlns="http://www.w3.org/2000/svg" fill="none">

 <g>
  <title>Layer 1</title>
  <rect id="svg_1" fill="#0C4BA0" rx="10" height="64" width="64"/>
  <path stroke="null" id="svg_2" fill="white" d="m9.53532,-0.52174l45.01631,0c5.65037,0 10.23098,4.56231 10.23098,10.19022l0,44.83696c0,5.62785 -4.58061,10.19022 -10.23098,10.19022l-45.01631,0c-5.65042,0 -10.23098,-4.56236 -10.23098,-10.19022l0,-44.83696c0,-5.6279 4.58056,-10.19022 10.23098,-10.19022zm23.92382,24.4716c-2.9322,1.21467 -8.7925,3.72891 -17.58081,7.54259c-1.42702,0.56525 -2.17459,1.11817 -2.24263,1.65887c-0.1151,0.91386 1.03384,1.27368 2.59836,1.76362c0.2128,0.06664 0.43328,0.13573 0.65939,0.2089c1.53915,0.4984 3.60969,1.08139 4.6861,1.10452c0.97644,0.02099 2.06615,-0.37989 3.26931,-1.20275c8.21118,-5.52075 12.44988,-8.31114 12.71598,-8.37126c0.18774,-0.04249 0.44791,-0.09589 0.62419,0.06022c0.17628,0.15601 0.15889,0.45153 0.14027,0.53081c-0.11387,0.48332 -4.62369,4.65937 -6.95758,6.82041c-0.72753,0.67378 -1.24368,1.1517 -1.34916,1.26084c-0.23634,0.24446 -0.47717,0.47578 -0.7087,0.69803c-1.42998,1.37303 -2.50229,2.40265 0.05944,4.08404c1.23099,0.80798 2.21613,1.47615 3.19882,2.1428c1.07333,0.72799 2.1438,1.45404 3.52887,2.35832c0.35287,0.2304 0.68988,0.46977 1.01808,0.70282c1.2491,0.88685 2.37123,1.68373 3.75753,1.55666c0.80559,-0.07388 1.63767,-0.82826 2.06021,-3.07846c0.99875,-5.31766 2.96177,-16.83954 3.41551,-21.58747c0.0397,-0.41596 -0.01033,-0.9483 -0.05044,-1.18196c-0.04011,-0.23376 -0.1241,-0.56668 -0.42909,-0.81318c-0.36115,-0.29195 -0.91874,-0.3535 -1.16817,-0.34932c-1.1338,0.02007 -2.87347,0.62262 -11.24548,4.09096z" clip-rule="evenodd" fill-rule="evenodd"/>
  <path d="m2.9646,2.89365c0,0 -0.02547,-0.06149 -0.08696,0c-0.06149,0.06149 -0.26087,0.26087 -0.52174,0.52174c-0.26087,0.26087 -0.45415,0.49774 -0.78261,0.78261c-0.1858,0.16115 -0.34783,0.26087 -0.43478,0.34783c-0.17391,0.17391 -0.29097,0.32221 -0.43478,0.52174c-0.11369,0.15774 -0.14718,0.45096 -0.26087,0.6087c-0.0719,0.09976 -0.17391,0.26087 -0.26087,0.43478c-0.08696,0.17391 -0.08696,0.34783 -0.17391,0.52174c0,0 0,0.08696 -0.08696,0.17391c0,0 0,0.08696 0,0.08696c0,0 0.08696,-0.08696 0.08696,-0.17391c0,-0.08696 0.06698,-0.2632 0.08696,-0.34783c0.04467,-0.18924 0.25547,-0.4389 0.52174,-0.78261c0.34099,-0.44016 0.59467,-0.71048 0.86957,-0.95652c0.41488,-0.37134 0.84754,-0.72794 1.21739,-0.95652c0.4962,-0.30667 1.0327,-0.55158 1.47826,-0.69565c0.34114,-0.11031 0.68763,-0.30402 1.04348,-0.34783c0.08631,-0.01062 0.17391,0 0.17391,0c-0.08696,0.17391 -0.25129,0.43974 -0.43478,0.78261c-0.3308,0.61811 -0.75791,1.61356 -1.21739,2.52174c-0.28308,0.55952 -0.52174,0.86957 -0.69565,1.21739l-0.08696,0.17391l0,0l0,0.08696" id="svg_3" fill="none"/>
  <path d="m0.00808,0.11104c0,0 0,0 0.23411,0.19565c0.70234,0.58696 1.61372,1.20085 2.80936,1.95652c1.6063,1.01521 3.47345,2.39171 5.38462,3.52174c1.37816,0.81488 2.34114,1.36956 2.80936,1.56522c0.46823,0.19565 0.70234,0.3913 0.93645,0.58696l0,0" id="svg_4" fill="white"/>
  <path d="m3.92112,2.71974c0,0 -0.08826,-0.02125 -0.26087,0c-0.35584,0.04381 -0.78408,0.07856 -1.30435,0.17391c-0.43613,0.07994 -0.69565,0.08696 -0.78261,0.08696c-0.08696,0 -0.17391,0 -0.17391,0c0,0 0,0 0.08696,0c0.17391,0 0.42939,-0.13029 0.95652,-0.17391c0.51996,-0.04303 1.21642,-0.00607 1.73913,-0.08696c0.60764,-0.09403 0.95652,-0.08696 1.13043,-0.08696l0.08696,0" id="svg_5" fill="none"/>
 </g>
</svg>