<svg width="64" height="64" xmlns="http://www.w3.org/2000/svg" fill="none">

 <g>
  <title>Layer 1</title>
  <rect id="svg_1" fill="#E5E5E5" height="64" width="64"/>
  <rect id="svg_2" x="-566" y="-9852" fill="#FAFAFA" height="11138" width="5471"/>
  <rect id="svg_3" fill="white" rx="16" height="384" width="1440" y="-120" x="-448"/>
  <rect id="svg_4" fill="#0C4BA0" rx="10" height="64" width="64"/>
  <path stroke="null" id="svg_5" fill="white" d="m-0.62857,9.64643c0,-5.61161 4.5491,-10.16071 10.16071,-10.16071l44.70714,0c5.61156,0 10.16071,4.5491 10.16071,10.16071l0,44.70714c0,5.61156 -4.54916,10.16071 -10.16071,10.16071l-44.70714,0c-5.61161,0 -10.16071,-4.54915 -10.16071,-10.16071l0,-44.70714zm18.53314,8.37243c-2.276,2.29764 -2.276,5.97176 -2.276,13.33086l0,1.30057c0,7.34823 0,11.02234 2.276,13.33086c2.29764,2.276 5.97176,2.276 13.33086,2.276l1.30057,0c7.34823,0 11.02234,0 13.33086,-2.276c2.276,-2.29764 2.276,-5.97176 2.276,-13.33086l0,-1.30057c0,-7.34823 0,-11.02234 -2.276,-13.33086c-2.29764,-2.276 -5.97176,-2.276 -13.33086,-2.276l-1.30057,0c-7.34823,0 -11.02234,0 -13.33086,2.276z" clip-rule="evenodd" fill-rule="evenodd"/>
  <path id="svg_6" fill="white" d="m33.024,39.0506c-7.296,0 -11.456,-4.992 -11.6267,-13.312l3.6694,0c0.1173,6.1014 2.8053,8.6827 4.9386,9.216l0,-9.216l3.4454,0l0,5.2587c2.1013,-0.224 4.32,-2.624 5.0666,-5.2693l3.4347,0c-0.28,1.3693 -0.8395,2.6662 -1.6433,3.8096c-0.8039,1.1434 -1.8349,2.1087 -3.0287,2.8357c1.3322,0.6631 2.5087,1.601 3.4519,2.752c0.9432,1.151 1.6317,2.4888 2.0201,3.9253l-3.7867,0c-0.8106,-2.528 -2.8373,-4.4906 -5.5146,-4.7573l0,4.7573l-0.4267,0z"/>
 </g>
</svg>